<svg xmlns="http://www.w3.org/2000/svg" viewBox="0 0 512 512" fill="none">
  <!-- Background -->
  <rect width="512" height="512" rx="64" fill="#374151"/>
  
  <!-- Coffee cup silhouette -->
  <path d="M140 200c0-11 9-20 20-20h192c11 0 20 9 20 20v120c0 44-36 80-80 80h-72c-44 0-80-36-80-80V200z" fill="#f9fafb"/>
  
  <!-- Handle -->
  <path d="M372 240h20c33 0 60 27 60 60s-27 60-60 60h-20" stroke="#f9fafb" stroke-width="24" fill="none"/>
  
  <!-- Dashboard icon overlay -->
  <g transform="translate(196, 240)">
    <!-- Bar chart -->
    <rect x="0" y="40" width="24" height="60" rx="4" fill="#374151"/>
    <rect x="32" y="20" width="24" height="80" rx="4" fill="#374151"/>
    <rect x="64" y="50" width="24" height="50" rx="4" fill="#374151"/>
    <rect x="96" y="30" width="24" height="70" rx="4" fill="#374151"/>
  </g>
  
  <!-- Steam -->
  <path d="M200 140c0-20 10-30 10-50s-10-30-10-50" stroke="#f9fafb" stroke-width="16" stroke-linecap="round" fill="none" opacity="0.6"/>
  <path d="M256 140c0-20 10-30 10-50s-10-30-10-50" stroke="#f9fafb" stroke-width="16" stroke-linecap="round" fill="none" opacity="0.6"/>
  <path d="M312 140c0-20 10-30 10-50s-10-30-10-50" stroke="#f9fafb" stroke-width="16" stroke-linecap="round" fill="none" opacity="0.6"/>
</svg>